HIERARCHY
ROOT Spine
{
    OFFSET 0.0 0.0 -0.0
    CHANNELS 6 Xposition Yposition Zposition Zrotation Xrotation Yrotation
    JOINT ShoulderCenter
    {
        OFFSET 0.0 0.3107941448688507 0.0
        CHANNELS 3 Zrotation Xrotation Yrotation
        JOINT LeftShoulder
        {
            OFFSET 0.1942979395389557 0.0 0.0
            CHANNELS 3 Zrotation Xrotation Yrotation
            JOINT LeftElbow
            {
                OFFSET 0.26162880659103394 0.0 0.0
                CHANNELS 3 Zrotation Xrotation Yrotation
                JOINT LeftHand
                {
                    OFFSET 0.33587533235549927 0.0 0.0
                    CHANNELS 3 Zrotation Xrotation Yrotation
                    End Site
                    {
                        OFFSET 0.13435012102127075 0.0 0.0
                    }
                }
            }
        }
        JOINT RightShoulder
        {
            OFFSET -0.1942979395389557 0.0 0.0
            CHANNELS 3 Zrotation Xrotation Yrotation
            JOINT RightElbow
            {
                OFFSET -0.26162880659103394 0.0 0.0
                CHANNELS 3 Zrotation Xrotation Yrotation
                JOINT RightHand
                {
                    OFFSET -0.33587533235549927 0.0 0.0
                    CHANNELS 3 Zrotation Xrotation Yrotation
                    End Site
                    {
                        OFFSET -0.13435012102127075 0.0 0.0
                    }
                }
            }
        }
        End Site
        {
            OFFSET 0.0 0.12431765347719193 0.0
        }
    }
    JOINT LeftHip
    {
        OFFSET 0.1617882328316623 -0.1617882328316623 0.0
        CHANNELS 3 Zrotation Xrotation Yrotation
        JOINT LeftKnee
        {
            OFFSET 0.0 -0.4168095290660858 0.0
            CHANNELS 3 Zrotation Xrotation Yrotation
            JOINT LeftFoot
            {
                OFFSET 0.0 -0.46998077630996704 0.0
                CHANNELS 3 Zrotation Xrotation Yrotation
                End Site
                {
                    OFFSET 0.0 0.0 0.18799230456352234
                }
            }
        }
    }
    JOINT RightHip
    {
        OFFSET -0.1617882328316623 -0.1617882328316623 0.0
        CHANNELS 3 Zrotation Xrotation Yrotation
        JOINT RightKnee
        {
            OFFSET 0.0 -0.4168095290660858 0.0
            CHANNELS 3 Zrotation Xrotation Yrotation
            JOINT RightFoot
            {
                OFFSET 0.0 -0.46998077630996704 0.0
                CHANNELS 3 Zrotation Xrotation Yrotation
                End Site
                {
                    OFFSET 0.0 0.0 0.18799230456352234
                }
            }
        }
    }
}
MOTION
Frames: 4
Frame Time: 0.03333333333333333
-0.03999999910593033 0.15600000321865082 0.33399999141693115 7.765168206983524 -3.3140451184560464 12.158285237400637 -1.0096497180520402e-06 9.1552675564672e-08 15.97954179779854 89.11591068888733 -8.424251981986568 161.44829295472397 5.3007951672352e-06 -8.512318201681958e-07 56.39753521284747 -3.975693351829395e-15 1.5902773407317582e-15 5.517382872562698e-32 -130.26634674215182 12.91300261338226 132.82439365542166 1.5678335787418534e-06 -1.5422888708370474e-06 -139.82807691191888 -6.3611093629270335e-15 2.3854160110976376e-15 -3.1805546814635168e-15 -2.2759087639033546 -2.227281006889369 -13.54743989327098 -0.29680090012579796 11.303690408729386 -27.496011466683864 7.951386703658791e-16 6.207055731633036e-33 8.94531004161614e-16 -28.49072201193106 2.9969875888614936 94.29429071910755 -13.644116595640796 0.8239030431359803 166.77840178050354 -6.957463365701443e-16 4.969616689786743e-17 3.068738305943315e-15
-0.03999999910593033 0.15700000524520874 0.3330000042915344 7.5824583761687965 -2.9477750680968295 12.47915336507191 -5.994912375012569e-07 -8.010338945553527e-08 15.625834648605371 89.34733959827243 -8.152973055380102 161.64785957551013 -1.0001189843974277e-06 -4.525338492874278e-06 56.07821342614813 -2.385416011097637e-15 -4.770832022195275e-15 4.770832022195275e-15 -130.19305109119432 13.072847669310129 132.19453009140585 -1.0666854062640412e-06 -1.6026103890412368e-06 -139.38633029157103 -6.3611093629270335e-15 -1.5902773407317582e-15 -3.1805546814635168e-15 -2.08505992440808 -2.773489981140648 -13.476267104128317 -0.3547253309004843 11.439157200789095 -28.29168568879679 0.0 0.0 -6.460501696722769e-16 -28.541454779188083 2.8270674802342617 94.96365060438279 -13.72763197629802 1.0578344747724897 162.52335795122698 9.939233379573488e-16 9.939233379573496e-17 8.696829207126803e-15
-0.03999999910593033 0.15700000524520874 0.3319999873638153 7.399594334194796 -2.7649898017380026 12.438017528735706 2.389262797493257e-07 3.674871058130722e-07 15.476525883210536 89.54167082331732 -7.257609732347145 161.68908496201308 -2.1923866343135195e-06 3.597439770566143e-06 55.53890259608842 1.033680271475643e-14 -6.3611093629270335e-15 -3.180554681463516e-15 -130.25644974015128 13.327094663440581 131.87659476477714 -1.4243052723151822e-06 -5.92960915302291e-07 -139.33465755741628 0.0 0.0 -3.1805546814635176e-15 -1.915335752486633 -2.8578258880182283 -14.54344760870756 -0.5653906616755865 11.166333032251208 -27.45837775700975 5.17254644302753e-34 -1.987846675914698e-16 2.981770013872047e-16 -28.3989492859377 2.6202704535217047 94.54259594988368 -13.600962280272965 0.9030576068617837 163.2193685313267 -6.957463365701443e-16 -9.939233379573492e-17 2.2114794269551013e-15
-0.03999999910593033 0.15700000524520874 0.3319999873638153 7.033417111761904 -2.767224950464067 12.341165002529063 1.84749792910857e-07 4.3220635470662976e-07 16.44214548010986 90.1024791776427 -8.128318859142706 161.96582906967765 4.960016292542621e-06 1.0254661995521687e-07 55.096689960366014 1.590277340731758e-15 0.0 0.0 -130.10539562255175 13.93063741294384 132.43327187779155 -1.6753511342579629e-06 -1.5176891648707445e-06 -139.72178001392712 -6.361109362927035e-15 -7.951386703658794e-16 -4.4139062980501586e-32 -1.5831507621601648 -3.0710553105729437 -13.353916705794443 -0.47682540898716413 11.311717608960361 -27.597909566240947 -2.069018577211012e-33 -1.987846675914698e-16 -1.1927080055488188e-15 -27.890314206428346 2.3603553502695824 94.1463212688896 -13.37360599453035 0.8087224481621109 165.69620723430253 -1.441188840038156e-15 3.500089759781962e-32 -2.782985346280577e-15
